<svg viewBox="0 0 64 64" xmlns="http://www.w3.org/2000/svg">
  <circle cx="32" cy="32" r="32" fill="#fff"/>
  <path d="M32.5 12c-8.5 0-16.5 5-19 13-2 6.5 0 13 4 17.5 3 3.5 7.5 5.5 12 5.5 2.5 0 5-.5 7-2 1.5-1 2.5-2.5 2.5-4.5 0-3-2.5-5.5-5.5-5.5-2 0-3.5 1-4.5 2.5-.5 1-1.5 1.5-2.5 1.5-2 0-4-1.5-5-3.5-1.5-3-1-7 1-10 2.5-4 7-6.5 12-6.5 6 0 11 4 12.5 9.5.5 2 1 4 .5 6-.5 2.5-2 4.5-4 6-2.5 2-6 3-9.5 3h-1c-1 0-2 .5-2 1.5s1 1.5 2 1.5h1c4.5 0 9-1.5 12.5-4 3-2.5 5-6 5.5-10 .5-3 0-6-.5-8.5C49 18.5 41.5 12 32.5 12z" fill="#ED1C24"/>
</svg>
