<svg version="1.1" id="Calque_1" xmlns="http://www.w3.org/2000/svg" xmlns:xlink="http://www.w3.org/1999/xlink" x="0px" y="0px" viewBox="0 0 112.8 112.8" style="enable-background:new 0 0 112.8 112.8;" xml:space="preserve">
 <style type="text/css">
  .st0{fill:url(#SVGID_1_);}
	.st1{fill:url(#SVGID_2_);}
	.st2{fill:url(#SVGID_3_);}
	.st3{fill:url(#SVGID_4_);}
	.st4{fill:url(#SVGID_5_);}
	.st5{fill:url(#SVGID_6_);}
	.st6{fill:#FFFFFF;}
 </style>
 <g>
  <linearGradient id="SVGID_1_" gradientUnits="userSpaceOnUse" x1="56.4141" y1="-2.7756" x2="56.4141" y2="116.3285">
   <stop offset="0" style="stop-color:#008053">
   </stop>
   <stop offset="0.6" style="stop-color:#7FCBAE">
   </stop>
   <stop offset="1" style="stop-color:#00A76D">
   </stop>
  </linearGradient>
  <rect class="st0" width="112.8" height="112.8">
  </rect>
  <linearGradient id="SVGID_2_" gradientUnits="userSpaceOnUse" x1="56.2361" y1="-28.0279" x2="56.2361" y2="105.8122">
   <stop offset="0" style="stop-color:#00A76D">
   </stop>
   <stop offset="0.3" style="stop-color:#7FCBAE">
   </stop>
   <stop offset="0.55" style="stop-color:#00A76D">
   </stop>
   <stop offset="0.8352" style="stop-color:#008053">
   </stop>
   <stop offset="0.8691" style="stop-color:#008558">
   </stop>
   <stop offset="0.9244" style="stop-color:#009264">
   </stop>
   <stop offset="0.9939" style="stop-color:#00A97A">
   </stop>
   <stop offset="1" style="stop-color:#00AD7D">
   </stop>
  </linearGradient>
  <path class="st1" d="M109.3,57.1c0,23.6,1.1,47.7,1.1,47.7c0,2.7-1.8,4.4-4,4.4H8.8c-2.2,0-3.7-1.9-4-4.4c0,0-2.8-20.6-2.8-52.1
		C2,21.2,4.9,6.4,4.9,6.4C5.2,3.8,6.6,2,8.8,2h97.7c2.2,0,4,2,4,4.4C110.4,6.4,109.3,33.5,109.3,57.1z">
  </path>
  <linearGradient id="SVGID_3_" gradientUnits="userSpaceOnUse" x1="77.675" y1="98.4208" x2="77.675" y2="11.8103">
   <stop offset="0" style="stop-color:#00B387">
   </stop>
   <stop offset="1" style="stop-color:#00A76D">
   </stop>
  </linearGradient>
  <path class="st2" d="M87.6,30.5c-7,4.1-9.1,4.4-16.7,9l0.4-0.8c4-4.3,5.7-6.2,8.3-10c-7,0.4-17.1,1.2-24.4,2.8l0.4-0.8
		c6.6-3.2,18.8-6.4,25-7.2c-1.5-2.1-13.9-8.8-17-10.1l0.4-0.8c9.4,1.1,21.8,5.4,27.2,8.8c2.3-0.7,4.6-0.8,8.9-1.2
		c0,0-0.6,2.6-5.3,5.7C96,28.9,93.3,46,91,50.5C90.9,43.3,90.3,34.4,87.6,30.5z">
  </path>
  <linearGradient id="SVGID_4_" gradientUnits="userSpaceOnUse" x1="23.938" y1="98.4256" x2="23.938" y2="11.789">
   <stop offset="0" style="stop-color:#00B387">
   </stop>
   <stop offset="1" style="stop-color:#00A76D">
   </stop>
  </linearGradient>
  <path class="st3" d="M36.6,91.5l0.4-0.8c-3.7-1.4-7.4-2.6-10.4-5.4c0.9-2.6,2-4.7,3.8-7.3l0.4-0.8c-3.2,0.5-6.1,1.6-8.8,2.2
		c-2.2-3.8-3-9-4.1-14l-0.4,0.8c-0.6,5.7-0.9,9.7-0.1,14.3c-2.3,0.6-4.3,0.7-6.2,1.5l-0.4,0.8c2.9,1.8,5.3,3.2,8.7,4.8
		c1.8,3.8,3.6,6.4,6.6,9.3l0.4-0.8c-0.5-2.2-1.2-4-1-6.3C29.2,90.8,32.4,91.3,36.6,91.5z">
  </path>
  <linearGradient id="SVGID_5_" gradientUnits="userSpaceOnUse" x1="40.6777" y1="98.4062" x2="40.6777" y2="11.8265">
   <stop offset="0" style="stop-color:#00B387">
   </stop>
   <stop offset="1" style="stop-color:#00A76D">
   </stop>
  </linearGradient>
  <path class="st4" d="M46.9,34.8c0,0-1.5,2.6-2.7,6.2H44c8.7,1.2,16.9,4.7,19,5.9l-0.4,0.8c-9-1.6-13.8-1.4-17.1-1.1
		c-3.4,0.3-4,0.7-4,0.7c-1.9,4.2-3.1,11.1-3.5,13.7l-0.4,0.8c-1.7-4-4-11.9-4-11.9c-4.5,2.4-15,12.3-15,12.3
		c5.8-11.5,11.6-16.8,11.6-16.8c-2-2-7.3-3.1-11.1-3.2l0.4-0.8c2.4-0.7,7.4-1,10.7-1.2c3.9-0.1,6.3,0.1,6.3,0.1
		C39.8,37.5,45.1,35.1,46.9,34.8z">
  </path>
  <linearGradient id="SVGID_6_" gradientUnits="userSpaceOnUse" x1="55.1509" y1="98.4183" x2="55.1509" y2="11.8088">
   <stop offset="0" style="stop-color:#00B387">
   </stop>
   <stop offset="1" style="stop-color:#00A76D">
   </stop>
  </linearGradient>
  <path class="st5" d="M58,84.3c-1.8,2.5-3.4,4.4-5.4,6.7c-3,0.8-6.5,0.4-9.3,0.5L43,92.3c2.1,1.1,4.1,1.7,6.2,2.2
		c-1.8,1.6-4.1,2.8-5.7,3.9l-0.4,0.8c3.5-0.8,8.2-2.3,11.6-4.4c1.8,0.1,3.5,0,4.7-0.3c0,0,0.4-0.8,0.4-0.8c-0.2-0.8-0.9-1.3-1.1-2.4
		c3.2-2.5,5.6-4.8,8.3-7.5l0.4-0.8c-2.7,1.8-5.9,4.4-9.1,5.9C58.2,87.3,58.1,86,58,84.3z">
  </path>
  <path class="st6" d="M88,29.7c-7,4.1-9.1,4.4-16.7,9c4.4-4.8,5.9-6.8,8.7-10.8c-7,0.4-17.1,1.2-24.4,2.8c6.3-3.4,18.8-7.1,25.4-8
		c-1.5-2.1-13.9-8.8-17-10.1c9.8,0.8,21.8,4.4,27.6,8c2.3-0.7,4.7-0.7,8.9-1.1c-1.1,1.9-1.1,2.9-5.3,5.7c1.2,3.1-1.6,20.1-3.9,24.6
		C91.3,42.6,90.6,33.6,88,29.7z">
  </path>
  <path class="st6" d="M37,90.7c-4-1.5-6.9-3.2-10.1-6.2c0.9-2.6,2-4.7,3.8-7.3c-3.3,0.5-5.7,0.9-8.5,1.4c-2.3-4-3.3-7.8-4.5-13.2
		c-0.6,5.7-0.9,9.7-0.1,14.3c-2.6,0.7-4.4,1.3-6.5,2.3c3,1.8,5.4,3.2,8.7,4.8c1.8,3.8,3.6,6.4,6.6,9.3c-0.7-2.5-0.9-4.5-0.6-7.1
		C29.6,90,32.8,90.5,37,90.7z">
  </path>
  <path class="st6" d="M47.4,34.1L47.4,34.1c-1.2,1.6-2.7,4.6-3.1,6c10.3,1.4,18.6,6.7,18.6,6.7c-9-1.6-13.8-1.4-17.1-1.1
		c-3.3,0.3-4,0.7-4,0.7c-2.4,5.3-3.9,14.5-3.9,14.5c-1.6-4-4-11.9-4-11.9c-4.6,2.4-15,12.3-15,12.3c5.8-11.5,11.6-16.8,11.6-16.8
		c-2-2-7.3-3.1-11.1-3.2c2-0.8,7.1-1.8,11.1-2c3.9-0.1,6.3,0.1,6.3,0.1C40.2,36.7,45.6,34.4,47.4,34.1z">
  </path>
  <path class="st6" d="M58.3,83.5c-1.8,2.5-3.4,4.4-5.4,6.7c-3.5,1-6.2,1.3-9.6,1.3c2.1,1.1,4.1,1.7,6.3,2.2c-2.2,2-4,3.4-6.1,4.7
		c3.5-0.8,8.2-2.3,11.6-4.4c1.8,0.1,3.5,0,4.7-0.3c-0.3-1-0.5-1.8-0.8-3.2c3.3-2.5,5.6-4.8,8.3-7.5c-2.9,2-5.4,3.5-8.7,5.1
		C58.5,86.6,58.4,85.3,58.3,83.5z">
  </path>
 </g>
</svg>