<svg width="120" height="22" viewBox="0 0 120 22" fill="none" xmlns="http://www.w3.org/2000/svg">
<path d="M72.312 0.125H95.0728V3.77682H72.312V0.125ZM81.8866 3.65129C81.8866 3.06706 82.0894 2.48444 82.3726 2.05955L85.577 0.778434V21.1926H81.885V3.65129H81.8866Z" fill="#FF6430"/>
<path d="M43.7058 17.5364V21.1899H30.8721C30.3088 21.1899 29.7696 20.9661 29.3705 20.5686L26.0824 17.2886C25.8136 17.0198 25.7203 16.6223 25.8442 16.2617L26.7262 13.6995L31.3919 0.109375H35.1387L29.5234 16.4774C29.3447 16.9956 29.731 17.5348 30.2798 17.5348H43.7058V17.5364Z" fill="#FF6430"/>
<path d="M102.959 4.66846C102.959 4.1808 103.365 3.77522 103.892 3.77522H120V0.125H104.583C103.975 0.125 103.406 0.368026 103.001 0.773605L99.9172 3.8573C99.4713 4.30311 99.2686 4.83101 99.2686 5.43938V15.8766C99.2686 16.4447 99.4713 17.0129 99.9172 17.4587L103.001 20.5424C103.406 20.948 103.975 21.191 104.583 21.191H120V17.5392H103.892C103.365 17.5392 102.959 17.1336 102.959 16.6459V12.5386H115.212V8.88681H103.892C103.365 8.88681 102.959 8.48123 102.959 7.99517V4.66846Z" fill="#FF6430"/>
<path d="M5.8857 4.63721V6.83249L12.5263 9.10985L19.6738 11.561C20.3932 11.8073 20.876 12.4832 20.876 13.2445V15.7504C20.876 16.3588 20.6716 16.9269 20.2258 17.3776L17.0585 20.5401C16.6545 20.9441 16.0863 21.1903 15.478 21.1903H0.141602V17.5369H16.2505C16.7768 17.5369 17.1808 17.1329 17.1808 16.6469V14.4693L10.5692 12.2032L3.39268 9.74558C2.67325 9.49933 2.19042 8.82337 2.19042 8.0621V5.53367C2.19042 4.9253 2.39482 4.35716 2.84064 3.90652L6.00802 0.743965C6.41199 0.339995 6.98012 0.09375 7.58849 0.09375H22.9233V3.74718H6.81757C6.29128 3.74718 5.88731 4.15115 5.88731 4.63721H5.8857Z" fill="#FF6430"/>
<path d="M67.4371 0.0973126V21.1939H63.7483V3.77972H57.6951C57.2284 3.77972 56.8116 4.07585 56.6571 4.51684L53.3834 13.8806L50.8309 21.1939H47.142L49.6946 13.8806L52.8362 4.88218C53.0117 4.38004 53.2981 3.92296 53.6748 3.54796L56.3915 0.834437C56.8647 0.361261 57.5068 0.0957031 58.1748 0.0957031H67.4355L67.4371 0.0973126Z" fill="#FF6430"/>
</svg>
